<svg width="232" height="48" viewBox="0 0 232 48" fill="none" xmlns="http://www.w3.org/2000/svg">
<path d="M0 47.3583V0.641711H14.4385C19.3155 0.641711 23.016 1.73262 25.5401 3.91444C28.0856 6.07487 29.3583 9.25134 29.3583 13.4438C29.3583 15.8182 28.8342 17.861 27.7861 19.5722C26.738 21.2834 25.3048 22.5348 23.4866 23.3262C25.5829 23.9251 27.1979 25.1337 28.3316 26.9519C29.4652 28.7487 30.0321 30.9733 30.0321 33.6257C30.0321 38.1604 28.7807 41.5829 26.2781 43.893C23.7968 46.2032 20.1925 47.3583 15.4652 47.3583H0ZM9.43316 27.0481V39.5294H15.4652C17.1551 39.5294 18.4385 39.0053 19.3155 37.9572C20.1925 36.9091 20.631 35.4225 20.631 33.4973C20.631 29.3048 19.1123 27.1551 16.0749 27.0481H9.43316ZM9.43316 20.1818H14.3422C18.0428 20.1818 19.893 18.2674 19.893 14.4385C19.893 12.3209 19.4652 10.8021 18.6096 9.88235C17.754 8.96257 16.3636 8.50267 14.4385 8.50267H9.43316V20.1818Z" fill="black"/>
<path d="M61.0267 27.1444H46.3316V39.5294H63.7219V47.3583H36.8984V0.641711H63.6578V8.50267H46.3316V19.5401H61.0267V27.1444Z" fill="black"/>
<path d="M139.412 31.7968C139.176 37.123 137.679 41.1551 134.92 43.893C132.16 46.631 128.267 48 123.241 48C117.957 48 113.904 46.2674 111.08 42.8021C108.278 39.3155 106.877 34.3529 106.877 27.9144V20.0535C106.877 13.6364 108.332 8.69519 111.241 5.22995C114.15 1.74332 118.193 0 123.369 0C128.46 0 132.321 1.42246 134.952 4.26738C137.604 7.1123 139.112 11.1979 139.476 16.5241H130.011C129.925 13.2299 129.412 10.9626 128.471 9.72192C127.551 8.45989 125.85 7.82888 123.369 7.82888C120.845 7.82888 119.059 8.71658 118.011 10.492C116.963 12.246 116.406 15.1444 116.342 19.1872V28.0107C116.342 32.6524 116.856 35.8396 117.882 37.5722C118.93 39.3048 120.717 40.1711 123.241 40.1711C125.722 40.1711 127.433 39.5722 128.374 38.3743C129.316 37.1551 129.85 34.9626 129.979 31.7968H139.412Z" fill="black"/>
<path d="M174.513 8.50267H162.963V47.3583H153.497V8.50267H142.139V0.641711H174.513V8.50267Z" fill="black"/>
<path d="M189.786 47.3583H180.353V0.641711H189.786V47.3583Z" fill="black"/>
<path d="M212.92 34.5241L220.781 0.641711H231.305L217.829 47.3583H208.011L194.631 0.641711H205.091L212.92 34.5241Z" fill="black"/>
<path d="M76.1069 47.3583H66.1283L80.7273 0.641711H89.3583L104.053 47.3583H93.9786L85.0267 13.2834L76.1069 47.3583Z" fill="black"/>
</svg>
