<svg width="34" height="34" viewBox="0 0 34 34" fill="none" xmlns="http://www.w3.org/2000/svg">
<path fill-rule="evenodd" clip-rule="evenodd" d="M17 34L18.0432 33.9944L18.5466 33.9874C27.8845 33.8325 34 32.2365 34 28.7692C34 26.2418 30.9612 24.8016 25.7506 24.0773L24.8868 23.966C27.075 19.5011 28.7692 14.6184 28.7692 11.7692C28.7692 5.26926 23.5 0 17 0C10.5 0 5.23077 5.26926 5.23077 11.7692C5.23077 14.6179 6.92439 19.4992 9.112 23.9621C3.35083 24.6352 0 26.0871 0 28.7692C0 32.2354 6.11159 33.8314 15.4445 33.9873L17 34ZM10.3228 26.4639L10.4104 26.4573C11.4379 28.3144 12.5168 29.9999 13.5437 31.3024C7.02925 30.986 2.61538 29.8125 2.61538 28.7692C2.61538 28.017 5.46749 26.9543 10.3228 26.4639ZM23.4075 26.7837L23.591 26.456C28.4585 26.9513 31.3846 28.0334 31.3846 28.7692C31.3846 30.8425 23.6464 31.1671 21.0549 31.2758C20.8027 31.2864 20.5992 31.2949 20.4564 31.3028C21.4233 30.0756 22.4355 28.5111 23.4075 26.7837ZM22.2308 13.0769C22.2308 10.188 19.8889 7.84615 17 7.84615C14.1111 7.84615 11.7692 10.188 11.7692 13.0769C11.7692 15.9658 14.1111 18.3077 17 18.3077C19.8889 18.3077 22.2308 15.9658 22.2308 13.0769Z" fill="black"/>
</svg>
