<svg width="32" height="32" viewBox="0 0 32 32" fill="none" xmlns="http://www.w3.org/2000/svg">
<circle cx="16" cy="16" r="15.5" fill="white" stroke="#304C50"/>
<path d="M20.5 12C21.8807 12 23 10.8807 23 9.5C23 8.11929 21.8807 7 20.5 7C19.1193 7 18 8.11929 18 9.5C18 10.8807 19.1193 12 20.5 12Z" fill="#304C50"/>
<path d="M14 12L10.75 15.25C11.06 15.37 11.31 15.52 11.52 15.64C11.89 15.87 12.11 16 12.67 16C13.23 16 13.45 15.87 13.82 15.64C14.28 15.37 14.9 15 16.01 15C17.12 15 17.74 15.37 18.19 15.64C18.56 15.86 18.79 16 19.34 16C19.89 16 20.12 15.87 20.49 15.64C20.61 15.57 20.75 15.49 20.9 15.41L14.48 9L9 7V9.5L13 11L14 12ZM26 20.5H25.98H26ZM9.35 19.5C9.9 19.5 10.13 19.64 10.5 19.86C10.95 20.13 11.57 20.5 12.68 20.5C13.79 20.5 14.41 20.13 14.86 19.86C15.23 19.63 15.45 19.5 16.01 19.5C16.56 19.5 16.79 19.64 17.16 19.86C17.61 20.13 18.23 20.5 19.34 20.5C20.45 20.5 21.07 20.13 21.52 19.86C21.89 19.63 22.11 19.5 22.67 19.5C23.22 19.5 23.45 19.64 23.82 19.86C24.27 20.13 24.88 20.49 25.98 20.5V18.5C25.43 18.5 25.2 18.36 24.83 18.14C24.38 17.87 23.76 17.5 22.65 17.5C21.54 17.5 20.92 17.87 20.47 18.14C20.1 18.37 19.87 18.5 19.32 18.5C18.77 18.5 18.54 18.36 18.17 18.14C17.72 17.87 17.1 17.5 15.99 17.5C14.88 17.5 14.26 17.87 13.81 18.14C13.44 18.37 13.22 18.5 12.66 18.5C12.11 18.5 11.88 18.36 11.51 18.14C11.06 17.87 10.44 17.5 9.33 17.5C8.22 17.5 7.6 17.87 7.15 18.14C6.78 18.37 6.56 18.5 6 18.5V20.5C7.11 20.5 7.73 20.13 8.2 19.86C8.57 19.63 8.8 19.5 9.35 19.5ZM22.67 22C21.56 22 20.94 22.37 20.49 22.64C20.12 22.87 19.89 23 19.34 23C18.79 23 18.56 22.86 18.19 22.64C17.74 22.37 17.12 22 16.01 22C14.9 22 14.28 22.37 13.82 22.64C13.45 22.87 13.23 23 12.67 23C12.11 23 11.89 22.87 11.52 22.64C11.07 22.37 10.45 22 9.34 22C8.23 22 7.61 22.37 7.15 22.64C6.78 22.87 6.56 23 6 23V25C7.11 25 7.73 24.63 8.19 24.36C8.56 24.13 8.79 24 9.34 24C9.89 24 10.12 24.13 10.49 24.36C10.94 24.63 11.56 25 12.67 25C13.78 25 14.4 24.63 14.86 24.36C15.23 24.13 15.45 24 16.01 24C16.56 24 16.79 24.14 17.16 24.36C17.61 24.63 18.23 25 19.34 25C20.45 25 21.06 24.63 21.52 24.36C21.89 24.13 22.11 24 22.67 24C23.22 24 23.45 24.14 23.82 24.36C24.27 24.63 24.89 25 26 25V23C25.44 23 25.22 22.87 24.85 22.64C24.4 22.37 23.78 22 22.67 22Z" fill="#304C50"/>
</svg>
