<svg width="32" height="32" viewBox="0 0 32 32" fill="none" xmlns="http://www.w3.org/2000/svg">
<circle cx="16" cy="16" r="15.5" fill="white" stroke="#323232"/>
<path d="M25.7345 6.28589C24.0441 4.59936 21.3075 4.59936 19.6171 6.28589L6.24648 19.6565C4.57659 21.3491 4.58566 24.0721 6.26698 25.7534C7.9483 27.4347 10.6715 27.4438 12.3639 25.7739L12.7517 25.3865L15.2539 22.8839L22.7151 15.4244L25.2162 12.9233L25.7345 12.4045C27.4218 10.7141 27.4218 7.97645 25.7345 6.28589ZM9.10861 21.7533C9.0498 21.9012 8.90665 21.9981 8.74755 21.9979C8.69596 21.9951 8.64522 21.9838 8.59734 21.9645C8.5004 21.9267 8.42361 21.8499 8.38581 21.7528C8.36649 21.7051 8.35523 21.6545 8.35271 21.6031C8.35254 21.444 8.44932 21.3007 8.597 21.2417C8.64472 21.2219 8.69563 21.2106 8.74721 21.2083C8.87944 21.2093 9.00242 21.276 9.07551 21.386C9.08962 21.4067 9.10071 21.4292 9.10861 21.4529C9.12037 21.4766 9.12877 21.502 9.13381 21.528C9.13801 21.5529 9.14087 21.5779 9.14204 21.6031C9.13952 21.6547 9.12827 21.7054 9.10861 21.7533ZM10.7787 23.423C10.7595 23.4706 10.7313 23.5141 10.6953 23.5509C10.6224 23.626 10.5221 23.6685 10.4173 23.6688C10.3659 23.6663 10.3151 23.6551 10.2676 23.6354C10.2197 23.6164 10.176 23.588 10.1394 23.5521C10.1034 23.5153 10.0752 23.4718 10.0559 23.4242C10.0364 23.3763 10.0251 23.3256 10.0226 23.274C10.0228 23.1692 10.0653 23.0689 10.1406 22.9959C10.1773 22.9602 10.2207 22.9319 10.2682 22.9126C10.3161 22.8929 10.3669 22.8819 10.4184 22.8795C10.5507 22.8805 10.6737 22.947 10.7466 23.0573C10.7609 23.0778 10.7721 23.1003 10.7798 23.1241C10.7916 23.148 10.8002 23.1732 10.805 23.1992C10.8094 23.2241 10.8121 23.2491 10.8133 23.2743C10.8101 23.3254 10.7985 23.3757 10.7787 23.423ZM10.7787 20.0859C10.7195 20.2336 10.5766 20.3306 10.4173 20.3306C10.3659 20.328 10.3151 20.3168 10.2676 20.2971C10.1703 20.2597 10.0933 20.1827 10.0559 20.0854C10.0364 20.0379 10.0251 19.9871 10.0226 19.9357C10.0228 19.8309 10.0653 19.7306 10.1406 19.6577C10.1772 19.6217 10.2207 19.5935 10.2682 19.5743C10.3161 19.5547 10.3669 19.5434 10.4184 19.5412C10.5507 19.5421 10.6737 19.6086 10.7466 19.719C10.7609 19.7395 10.7721 19.762 10.7798 19.7859C10.7916 19.8097 10.8002 19.8349 10.805 19.861C10.8094 19.8858 10.8121 19.9109 10.8133 19.9361C10.8103 19.9871 10.7985 20.0374 10.7787 20.0848V20.0859ZM12.4472 21.7545C12.4281 21.802 12.3998 21.8455 12.3639 21.8823C12.2908 21.9573 12.1907 21.9998 12.0858 22.0003C12.0344 21.9974 11.9835 21.9862 11.9356 21.9669C11.8387 21.9292 11.7619 21.8523 11.7246 21.7553C11.7048 21.7076 11.6935 21.6569 11.6912 21.6055C11.6912 21.5006 11.7337 21.4003 11.8091 21.3274C11.8456 21.2913 11.8889 21.263 11.9365 21.2441C11.9843 21.2244 12.0351 21.213 12.0867 21.2106C12.2189 21.2116 12.3419 21.2783 12.4151 21.3884C12.4292 21.4089 12.4403 21.4314 12.4481 21.4552C12.4598 21.4789 12.4684 21.5043 12.4733 21.5304C12.4775 21.5552 12.4803 21.5803 12.4815 21.6055C12.4785 21.6562 12.467 21.7063 12.4472 21.7533V21.7545ZM20.256 10.6074C20.1974 10.7552 20.0542 10.8522 19.8951 10.852C19.8436 10.8492 19.7928 10.8379 19.7448 10.8186C19.6478 10.7808 19.571 10.704 19.5332 10.6071C19.5139 10.5593 19.5028 10.5086 19.5003 10.4572C19.5005 10.3523 19.543 10.2522 19.6182 10.1791C19.655 10.1432 19.6984 10.1148 19.7459 10.0955C19.7938 10.076 19.8447 10.0649 19.8963 10.0624C20.0284 10.0635 20.1514 10.1301 20.2246 10.2401C20.2389 10.2606 20.25 10.2831 20.2577 10.307C20.2695 10.3307 20.2779 10.356 20.2827 10.3821C20.2871 10.407 20.2898 10.432 20.2911 10.4572C20.2881 10.5089 20.2762 10.5597 20.256 10.6074ZM21.9246 12.2756C21.8658 12.4236 21.7225 12.5206 21.5632 12.5202C21.5118 12.5177 21.461 12.5065 21.4135 12.4868C21.3164 12.4493 21.2394 12.3726 21.2018 12.2756C21.1823 12.2277 21.171 12.177 21.1684 12.1254C21.1689 12.0206 21.2114 11.9204 21.2863 11.8473C21.3233 11.8116 21.3666 11.7833 21.4142 11.764C21.462 11.7443 21.5128 11.7333 21.5644 11.7309C21.6966 11.7316 21.8196 11.7983 21.8923 11.9087C21.9068 11.9292 21.918 11.9517 21.9258 11.9755C21.9377 11.9992 21.9461 12.0246 21.951 12.0506C21.9553 12.0755 21.958 12.1005 21.9592 12.1257C21.9562 12.1773 21.9446 12.2279 21.9246 12.2756ZM21.9246 8.93884C21.9054 8.98639 21.8772 9.02991 21.8412 9.0667C21.7683 9.1418 21.668 9.18448 21.5632 9.18465C21.5118 9.18213 21.461 9.17087 21.4135 9.15121C21.3162 9.11374 21.2393 9.03679 21.2018 8.93968C21.1823 8.89197 21.171 8.84123 21.1684 8.78981C21.1689 8.68497 21.2114 8.58484 21.2863 8.51175C21.3231 8.47596 21.3666 8.44757 21.4142 8.42841C21.462 8.40892 21.5128 8.3975 21.5644 8.39498C21.6964 8.39599 21.8194 8.46269 21.8923 8.57274C21.9066 8.5934 21.9179 8.61609 21.9258 8.63994C21.9377 8.66363 21.9461 8.689 21.951 8.71505C21.9552 8.73974 21.958 8.76478 21.9592 8.78981C21.9562 8.84106 21.9444 8.89146 21.9246 8.93884ZM23.5931 10.6074C23.534 10.7551 23.3908 10.852 23.2317 10.852C23.1802 10.8492 23.1294 10.8379 23.0815 10.8186C23.034 10.7993 22.9906 10.7709 22.9538 10.7353C22.9179 10.6983 22.8895 10.6548 22.8703 10.6071C22.8507 10.5593 22.8394 10.5086 22.8369 10.4572C22.8371 10.3523 22.8796 10.252 22.955 10.1791C22.9915 10.1432 23.0348 10.1148 23.0824 10.0955C23.1304 10.076 23.1813 10.0649 23.2329 10.0624C23.365 10.0635 23.488 10.1301 23.5609 10.2401C23.5753 10.2606 23.5866 10.2831 23.5943 10.307C23.6059 10.3308 23.6143 10.356 23.6192 10.3821C23.6234 10.407 23.6262 10.432 23.6277 10.4572C23.6247 10.5088 23.6131 10.5597 23.5931 10.6074Z" fill="#323232"/>
<path d="M7.46785 16.21L6.07769 17.6005C5.9243 17.754 5.9243 18.003 6.07769 18.1566L6.35576 18.4347L8.30237 16.488L8.02431 16.21C7.95055 16.1362 7.85042 16.0947 7.74608 16.0947C7.64174 16.0947 7.5416 16.1362 7.46785 16.21Z" fill="#323232"/>
<path d="M17.2914 7.49944L18.2642 6.5263L17.9867 6.24824C17.8311 6.09955 17.5861 6.09955 17.4306 6.24824L16.0397 7.63839C15.8862 7.79195 15.8862 8.04078 16.0397 8.19435L16.3176 8.47241L17.2914 7.49944Z" fill="#323232"/>
<path d="M14.4199 25.9426L15.8104 24.5524C15.8843 24.4787 15.9256 24.3785 15.9256 24.2742C15.9256 24.1699 15.8843 24.0697 15.8104 23.996L15.5323 23.7179L13.5857 25.6645L13.8638 25.9426C14.0173 26.0961 14.2663 26.0961 14.4199 25.9426Z" fill="#323232"/>
<path d="M23.5481 15.7022L23.8262 15.9803C23.9819 16.1286 24.2265 16.1286 24.3821 15.9803L25.7723 14.5901C25.9258 14.4366 25.9258 14.1877 25.7723 14.0342L25.4944 13.7561L23.5481 15.7022Z" fill="#323232"/>
</svg>
