<svg width="32" height="32" viewBox="0 0 32 32" fill="none" xmlns="http://www.w3.org/2000/svg">
<circle cx="16" cy="16" r="15.5" fill="white" stroke="#304C50"/>
<path d="M23.5308 19.9145C22.7641 19.1688 21.7367 18.7516 20.6672 18.7516C19.5976 18.7516 18.5703 19.1688 17.8036 19.9145C17.7819 19.9303 17.7625 19.9489 17.7458 19.9698C17.1712 20.547 16.7805 21.2816 16.6229 22.0806C16.4654 22.8797 16.5481 23.7076 16.8607 24.4597C17.1732 25.2118 17.7016 25.8545 18.379 26.3066C19.0565 26.7587 19.8527 27 20.6672 27C21.4817 27 22.2779 26.7587 22.9553 26.3066C23.6328 25.8545 24.1612 25.2118 24.4737 24.4597C24.7862 23.7076 24.869 22.8797 24.7114 22.0806C24.5539 21.2816 24.1632 20.547 23.5886 19.9698C23.5724 19.9484 23.5529 19.9298 23.5308 19.9145ZM18.0246 20.53C18.407 20.7892 18.72 21.1381 18.9364 21.5462C19.1527 21.9543 19.2659 22.4092 19.2659 22.8711C19.2659 23.333 19.1527 23.7879 18.9364 24.196C18.72 24.6041 18.407 24.953 18.0246 25.2122C17.4498 24.5679 17.1321 23.7346 17.1321 22.8711C17.1321 22.0076 17.4498 21.1743 18.0246 20.53V20.53ZM18.4542 25.6242C18.8871 25.3074 19.2392 24.8931 19.482 24.4147C19.7247 23.9364 19.8512 23.4075 19.8512 22.8711C19.8512 22.3347 19.7247 21.8058 19.482 21.3275C19.2392 20.8491 18.8871 20.4347 18.4542 20.118C19.0805 19.6104 19.8622 19.3334 20.6684 19.3334C21.4746 19.3334 22.2564 19.6104 22.8827 20.118C22.4498 20.4347 22.0977 20.8491 21.8549 21.3275C21.6122 21.8058 21.4857 22.3347 21.4857 22.8711C21.4857 23.4075 21.6122 23.9364 21.8549 24.4147C22.0977 24.8931 22.4498 25.3074 22.8827 25.6242C22.2564 26.1318 21.4746 26.4088 20.6684 26.4088C19.8622 26.4088 19.0805 26.1318 18.4542 25.6242V25.6242ZM23.3097 25.2122C22.9274 24.953 22.6144 24.6041 22.398 24.196C22.1816 23.7879 22.0685 23.333 22.0685 22.8711C22.0685 22.4092 22.1816 21.9543 22.398 21.5462C22.6144 21.1381 22.9274 20.7892 23.3097 20.53C23.8846 21.1743 24.2023 22.0076 24.2023 22.8711C24.2023 23.7346 23.8846 24.5679 23.3097 25.2122ZM22.3602 9.92962C22.4332 9.92285 22.5009 9.8891 22.5503 9.83497C22.5996 9.78083 22.627 9.71023 22.627 9.63698C22.627 9.56373 22.5996 9.49312 22.5503 9.43899C22.5009 9.38486 22.4332 9.3511 22.3602 9.34434H20.8882V7.87235C20.8882 7.79507 20.8575 7.72095 20.8029 7.66631C20.7482 7.61166 20.6741 7.58096 20.5969 7.58096C20.5196 7.58096 20.4455 7.61166 20.3908 7.66631C20.3362 7.72095 20.3055 7.79507 20.3055 7.87235V9.34434H17.8337V7.87235C17.827 7.79941 17.7932 7.73163 17.7391 7.68229C17.6849 7.63294 17.6143 7.60559 17.5411 7.60559C17.4678 7.60559 17.3972 7.63294 17.3431 7.68229C17.289 7.73163 17.2552 7.79941 17.2484 7.87235V9.34434H15.779C15.706 9.3511 15.6383 9.38486 15.5889 9.43899C15.5396 9.49312 15.5122 9.56373 15.5122 9.63698C15.5122 9.71023 15.5396 9.78083 15.5889 9.83497C15.6383 9.8891 15.706 9.92285 15.779 9.92962H17.2484V12.4014H15.779C15.7017 12.4014 15.6276 12.4321 15.5729 12.4867C15.5183 12.5413 15.4876 12.6155 15.4876 12.6927C15.4876 12.77 15.5183 12.8441 15.5729 12.8988C15.6276 12.9534 15.7017 12.9841 15.779 12.9841H17.2484V14.4561C17.2552 14.5291 17.289 14.5968 17.3431 14.6462C17.3972 14.6955 17.4678 14.7229 17.5411 14.7229C17.6143 14.7229 17.6849 14.6955 17.7391 14.6462C17.7932 14.5968 17.827 14.5291 17.8337 14.4561V12.9816H20.3055V14.4536C20.3055 14.5309 20.3362 14.605 20.3908 14.6596C20.4455 14.7143 20.5196 14.745 20.5969 14.745C20.6741 14.745 20.7482 14.7143 20.8029 14.6596C20.8575 14.605 20.8882 14.5309 20.8882 14.4536V12.9816H22.3602C22.4375 12.9816 22.5116 12.9509 22.5663 12.8963C22.6209 12.8416 22.6516 12.7675 22.6516 12.6902C22.6516 12.613 22.6209 12.5388 22.5663 12.4842C22.5116 12.4295 22.4375 12.3988 22.3602 12.3988H20.8882V9.92962H22.3602ZM20.3055 12.4014H17.8337V9.92962H20.3055V12.4014ZM23.6765 6.50837C21.4509 4.2828 17.5649 4.55157 15.0103 7.10621C13.8602 8.23631 13.13 9.72499 12.9405 11.3263L12.4532 14.0693C12.2014 15.4974 11.5155 16.8131 10.4888 17.8372L6.08542 22.2356C6.05825 22.2625 6.0367 22.2946 6.02204 22.33C6.00738 22.3654 5.99989 22.4033 6.00002 22.4416C5.99961 22.4799 6.00697 22.5179 6.02165 22.5533C6.03632 22.5887 6.05802 22.6207 6.08542 22.6475L7.53481 24.0969C7.56168 24.1242 7.59376 24.1458 7.62914 24.1605C7.66452 24.1752 7.70248 24.1826 7.74078 24.1823C7.7791 24.1827 7.81711 24.1754 7.85251 24.1607C7.88791 24.146 7.91997 24.1243 7.94676 24.0969L12.3502 19.696C13.3744 18.6695 14.6901 17.9836 16.1181 17.7317L18.8159 17.2519C20.4366 17.0738 21.9456 16.3397 23.0862 15.1745C24.2943 13.9952 25.0379 12.4207 25.1811 10.7385C25.2533 9.96636 25.156 9.18781 24.8961 8.45718C24.6363 7.72656 24.22 7.06147 23.6765 6.50837V6.50837ZM11.9382 19.2815L7.74078 23.479L6.70336 22.4416L10.9008 18.2567C11.2195 17.9351 11.5095 17.5863 11.7674 17.2142L12.9807 18.425C12.6091 18.6798 12.2603 18.9664 11.9382 19.2815ZM16.0101 17.1564C15.1189 17.3166 14.2633 17.6339 13.4831 18.0934L12.0915 16.6993C12.5506 15.9191 12.867 15.0634 13.0259 14.1723L13.1314 13.5895C13.3662 14.412 13.8061 15.1613 14.4098 15.7672C15.0135 16.3731 15.7612 16.8157 16.5828 17.0535L16.0101 17.1564ZM24.5883 10.6958C24.4421 12.1593 23.8179 13.534 22.8122 14.6073C21.8065 15.6807 20.4753 16.3929 19.0244 16.634C18.9935 16.6302 18.9623 16.6302 18.9314 16.634L18.7355 16.6691L18.5999 16.6842C17.898 16.7612 17.1878 16.6765 16.5237 16.4367C15.8595 16.1969 15.2591 15.8082 14.7684 15.3005C14.2777 14.7928 13.9096 14.1795 13.6925 13.5076C13.4754 12.8358 13.4149 12.1231 13.5157 11.4242L13.5484 11.2509C13.5532 11.2226 13.5532 11.1937 13.5484 11.1655C13.7652 9.78007 14.4223 8.50124 15.4223 7.51816C16.5989 6.30962 18.2046 5.61373 19.891 5.58146C20.5136 5.56991 21.1323 5.68234 21.711 5.9122C22.2898 6.14205 22.817 6.48475 23.262 6.92032C23.7443 7.41534 24.1128 8.00959 24.3419 8.66165C24.5709 9.3137 24.655 10.0079 24.5883 10.6958V10.6958Z" fill="#304C50"/>
</svg>
