<svg width="32" height="32" viewBox="0 0 32 32" fill="none" xmlns="http://www.w3.org/2000/svg">
<circle cx="16" cy="16" r="15.5" fill="white" stroke="#304C50"/>
<path d="M25.0227 21.1165C24.3979 21.4962 23.6562 21.8229 22.8326 22.0858C21.4636 22.5219 19.8683 22.7797 18.2088 22.7811C16.1396 22.7799 13.971 22.3788 12.0349 21.402C11.9307 22.0595 11.8729 22.7533 11.8729 23.4775C11.8729 24.1539 11.9233 24.8592 12.0338 25.5857C13.2545 26.0922 14.5947 26.3714 16.0001 26.3714C18.8652 26.3714 21.4561 25.2111 23.3343 23.334C23.9918 22.6766 24.5625 21.9312 25.0227 21.1165ZM6.30006 19.6796C6.31009 17.7813 6.81551 15.9308 7.54601 14.2989C8.28509 12.6483 9.25327 11.2177 10.1937 10.1768C10.7154 9.59976 11.2271 9.14216 11.6996 8.83175C11.1063 8.36155 10.4488 7.99702 9.72089 7.7456C9.34891 8.02852 8.99669 8.33635 8.66624 8.6671C6.78916 10.5439 5.62855 13.1348 5.62855 15.9999C5.62855 17.2959 5.86623 18.5367 6.30006 19.6796ZM12.1546 20.7568C14.0228 21.7399 16.1625 22.1523 18.2091 22.1523C19.8033 22.1523 21.3393 21.902 22.6419 21.4873C23.9154 21.0824 24.9614 20.5154 25.6152 19.8958V19.8946C26.1028 18.6928 26.372 17.3778 26.372 15.9999C26.372 15.2908 26.3004 14.5993 26.1647 13.9306C25.6381 14.4109 24.9892 14.7831 24.2112 15.0457C23.7888 15.1889 23.3275 15.2997 22.8232 15.3802C22.7212 15.3965 22.6182 15.4117 22.5128 15.4254H22.5116C21.9094 15.5047 21.2494 15.5437 20.5266 15.5437C19.1275 15.5437 17.4892 15.3979 15.562 15.1099C15.1548 15.3475 14.7299 15.7069 14.3212 16.1722C13.8837 16.6725 13.4639 17.2948 13.1005 18.0215C12.7019 18.8173 12.3726 19.7363 12.1552 20.756V20.7568H12.1546ZM26.6481 13.2316C26.878 14.1168 27 15.0431 27 15.9999C27 17.4858 26.7059 18.9027 26.1716 20.195C24.5236 24.1888 20.5899 27 16.0001 27C14.4538 27 12.9816 26.6807 11.6466 26.1037C11.6366 26.0985 11.6252 26.0948 11.6151 26.09C7.72183 24.3964 5 20.5169 5 15.9999C5 10.2246 9.45143 5.48881 15.1099 5.03637C15.194 5.02892 15.2782 5.02262 15.3624 5.0189C15.5738 5.0063 15.7859 5 15.9999 5C21.1013 5 25.3921 8.47352 26.634 13.1841C26.6395 13.199 26.6443 13.2153 26.6481 13.2316ZM24.0093 14.4498C24.8555 14.1643 25.494 13.7545 25.9932 13.2153C25.5092 11.4705 24.5788 9.91161 23.3343 8.6671C21.6182 6.95095 19.3053 5.83359 16.7329 5.6549C16.885 5.74424 17.0385 5.84103 17.1931 5.94412C17.8268 6.3665 18.4717 6.89197 19.0888 7.49418C20.3244 8.6986 21.4573 10.2083 22.1737 11.8225C22.5912 12.7666 22.8676 13.7471 22.928 14.7238C23.3217 14.6523 23.6814 14.5603 24.0093 14.4498ZM22.3046 14.8169C22.2293 13.41 21.6508 11.9356 20.7986 10.5854C19.8834 9.13329 18.6578 7.82606 17.4471 6.89826C16.6865 6.31495 15.9311 5.8837 15.2774 5.65375C15.2774 5.65375 15.2774 5.65375 15.2762 5.65375C13.4622 5.77832 11.7789 6.36908 10.342 7.30804C11.608 7.83351 12.6727 8.69344 13.5415 9.82226C14.5056 11.0745 15.2298 12.6583 15.7479 14.5025C17.6123 14.7777 19.1925 14.9148 20.5263 14.9148C21.1772 14.9148 21.768 14.8822 22.3046 14.8169ZM15.1313 14.6345C14.6311 12.8631 13.9358 11.3672 13.0421 10.2057C12.7769 9.86121 12.494 9.54707 12.1936 9.26157C11.756 9.52187 11.2154 9.98434 10.6599 10.598C10.0651 11.2566 9.44914 12.0914 8.89475 13.0444C7.78597 14.9501 6.92719 17.33 6.92862 19.74C6.92862 20.2365 6.96499 20.7356 7.04288 21.231C7.4916 22.0005 8.03854 22.7069 8.66595 23.3343C9.44914 24.1175 10.3569 24.7761 11.3563 25.2767C11.281 24.6607 11.2443 24.0597 11.2443 23.4778C11.2443 22.5637 11.3322 21.6952 11.4894 20.8831C11.4906 20.8705 11.4932 20.8579 11.4969 20.8453C11.6252 20.1815 11.7998 19.5567 12.0112 18.9734C12.4825 17.6673 13.1326 16.576 13.8479 15.7587C14.2591 15.2897 14.6926 14.9111 15.1313 14.6345Z" fill="#304C50"/>
</svg>
