<svg width="32" height="32" viewBox="0 0 32 32" fill="none" xmlns="http://www.w3.org/2000/svg">
<circle cx="16" cy="16" r="15.5" fill="white" stroke="#304C50"/>
<path d="M25.9601 13.7396C26.1986 11.3484 25.3671 9.00909 23.6788 7.32082C21.9906 5.6329 19.6516 4.80243 17.2594 5.0399C13.6262 5.40285 10.6615 8.2933 10.2105 11.9127C10.0452 13.2377 10.1994 14.5309 10.6689 15.7567C10.9044 16.3713 10.7533 17.0716 10.2844 17.5408L9.90861 17.9166L5 22.8245L5.1356 23.0502C5.82609 24.2008 6.79924 25.1739 7.94982 25.8644L8.17582 26L13.4599 20.7156C13.9291 20.2467 14.629 20.0963 15.2439 20.3311C16.4694 20.8006 17.7627 20.9541 19.0887 20.7895C22.7077 20.3378 25.5978 17.3732 25.9601 13.7396ZM11.2987 15.5149C11.1081 15.0177 10.9779 14.5077 10.9013 13.9885L12.3687 15.4559L11.4471 16.3774C11.4505 16.0873 11.406 15.7949 11.2987 15.5149ZM8.07429 25.1473C7.1885 24.5721 6.42786 23.8115 5.85273 22.9257L10.3856 18.3929L10.7613 18.0171L12.8456 15.9328L15.0672 18.1544L12.9829 20.2387L8.07429 25.1473ZM14.6226 19.5529L15.5441 18.6313L17.0115 20.0987C16.4923 20.0221 15.9823 19.8916 15.4854 19.7013C15.2048 19.594 14.9123 19.5495 14.6226 19.5529ZM19.005 20.1203C18.6825 20.1604 18.3621 20.1786 18.0443 20.1776L16.0211 18.1544L15.7826 17.9159L13.0841 15.2174L12.8456 14.9789L10.8224 12.9557C10.8214 12.6383 10.8396 12.3182 10.8797 11.9957C11.2926 8.68594 14.0036 6.04307 17.3265 5.71116C19.5174 5.49257 21.6573 6.25288 23.2019 7.79779C24.7468 9.34236 25.5074 11.4836 25.2892 13.6728C24.9576 16.9954 22.3147 19.707 19.005 20.1203Z" fill="#304C50"/>
<path d="M23.3025 20.5156C21.8146 20.5156 20.604 21.7262 20.604 23.2141C20.604 24.702 21.8146 25.9126 23.3025 25.9126C24.7904 25.9126 26.001 24.702 26.001 23.2141C26.001 21.7262 24.7904 20.5156 23.3025 20.5156ZM23.3025 25.238C22.1864 25.238 21.2786 24.3303 21.2786 23.2141C21.2786 22.0979 22.1864 21.1902 23.3025 21.1902C24.4187 21.1902 25.3264 22.0979 25.3264 23.2141C25.3264 24.3303 24.4187 25.238 23.3025 25.238Z" fill="#304C50"/>
<path d="M7.88448 22.6382L7.20996 23.3127L7.68699 23.7898L8.36151 23.1153L7.88448 22.6382Z" fill="#304C50"/>
<path d="M8.89645 21.6263L8.22192 22.3008L8.69896 22.7779L9.37348 22.1034L8.89645 21.6263Z" fill="#304C50"/>
<path d="M9.90841 20.6144L9.23389 21.2889L9.71092 21.7659L10.3854 21.0914L9.90841 20.6144Z" fill="#304C50"/>
</svg>
