<svg width="32" height="32" viewBox="0 0 32 32" fill="none" xmlns="http://www.w3.org/2000/svg">
<circle cx="16" cy="16" r="15.5" fill="white" stroke="#304C50"/>
<path d="M16 5C9.9279 5 5 9.92789 5 16C5 22.0721 9.9279 27 16 27C22.0721 27 27 22.0721 27 16C27 9.92789 22.0721 5 16 5ZM16 5.50363C16.8825 5.50363 17.7393 5.6183 18.5581 5.8234V7.11047L16 7.80596L13.4419 7.11047V5.8234C14.2607 5.6183 15.1175 5.50363 16 5.50363ZM12.9302 5.9593V7.30233C12.9319 7.35768 12.9516 7.41099 12.9862 7.45423C13.0208 7.49748 13.0685 7.52833 13.1221 7.54215L15.7442 8.25363V12.5225L12.8183 14.1054L9.3968 12.0509L10.1243 9.27689C10.1395 9.21948 10.1342 9.15856 10.1094 9.1046C10.0846 9.05063 10.0418 9.00697 9.98837 8.9811L8.77326 8.38953C9.93644 7.2847 11.3566 6.44026 12.9302 5.9593ZM19.0698 5.9593C20.6434 6.44026 22.0636 7.2847 23.2267 8.38953L22.0116 8.9811C21.9582 9.00697 21.9154 9.05063 21.8906 9.1046C21.8658 9.15856 21.8605 9.21948 21.8757 9.27689L22.6032 12.0429L19.1737 14.1054L16.2558 12.5225V8.25363L18.8779 7.54215C18.9315 7.52833 18.9792 7.49748 19.0138 7.45423C19.0484 7.41099 19.0681 7.35768 19.0698 7.30233V5.9593ZM8.40552 8.76526C8.42475 8.78167 8.4463 8.79514 8.46948 8.80523L9.58067 9.34884L8.90116 11.899L7.00654 13.7776L5.88735 13.21C6.35297 11.5191 7.22987 9.99904 8.40552 8.76526ZM23.5945 8.76526C24.7701 9.99904 25.647 11.5191 26.1126 13.21L24.9935 13.7776L23.0988 11.899L22.4193 9.34884L23.5305 8.80523C23.5537 8.79514 23.5753 8.78167 23.5945 8.76526V8.76526ZM9.07703 12.4426L12.6664 14.601V17.391L9.07703 19.5494L7.23837 17.7267C7.21126 17.7001 7.17853 17.6797 7.14257 17.6673C7.10662 17.6548 7.06834 17.6506 7.03052 17.6548C7.00001 17.6575 6.97023 17.6656 6.94259 17.6788L5.75945 18.2783C5.59723 17.5451 5.51163 16.7821 5.51163 16C5.51163 15.2152 5.59613 14.4492 5.75945 13.7137L6.94259 14.3132C6.99067 14.3373 7.04514 14.3457 7.09824 14.3371C7.15134 14.3285 7.20037 14.3033 7.23837 14.2653L9.07703 12.4426ZM22.923 12.4426L24.7616 14.2653C24.7996 14.3033 24.8487 14.3285 24.9018 14.3371C24.9549 14.3457 25.0093 14.3373 25.0574 14.3132L26.2406 13.7137C26.4039 14.4492 26.4884 15.2152 26.4884 16C26.4884 16.7821 26.4028 17.5451 26.2406 18.2783L25.0574 17.6788C25.0104 17.6554 24.9574 17.647 24.9055 17.6548C24.8511 17.6627 24.8006 17.6879 24.7616 17.7267L22.923 19.5494L19.3336 17.391V14.601L22.923 12.4426ZM16 12.9622L18.79 14.4811C18.7901 14.5111 18.7955 14.5409 18.806 14.569V17.5109L16 19.0378L13.194 17.5109V14.617C13.2186 14.5732 13.2297 14.5232 13.226 14.4731L16 12.9622ZM12.8183 17.8946L15.7442 19.4775V23.7384L13.1221 24.4499C13.0672 24.464 13.0185 24.4961 12.9838 24.5409C12.949 24.5858 12.9302 24.6409 12.9302 24.6977V26.0407C11.3548 25.5592 9.93721 24.7092 8.77326 23.6025L9.98837 23.0109C10.0418 22.985 10.0846 22.9414 10.1094 22.8874C10.1342 22.8334 10.1395 22.7725 10.1243 22.7151L9.3968 19.9491L12.8183 17.8946ZM19.1817 17.8946L22.6032 19.9491L21.8757 22.7151C21.8605 22.7725 21.8658 22.8334 21.8906 22.8874C21.9154 22.9414 21.9582 22.985 22.0116 23.0109L23.2267 23.6025C22.0628 24.7092 20.6452 25.5592 19.0698 26.0407V24.6977C19.0698 24.6409 19.051 24.5858 19.0162 24.5409C18.9815 24.4961 18.9328 24.464 18.8779 24.4499L16.2558 23.7384V19.4775L19.1817 17.8946ZM7.00654 18.2144L8.90116 20.093L9.57267 22.6512L8.46948 23.1868C8.44295 23.1986 8.41862 23.2148 8.39753 23.2347C7.2216 21.9994 6.34379 20.4749 5.87936 18.782L7.00654 18.2144ZM24.9935 18.2144L26.1206 18.782C25.6562 20.4749 24.7784 21.9994 23.6025 23.2347C23.5814 23.2148 23.5571 23.1986 23.5305 23.1868L22.4273 22.6512L23.0988 20.093L24.9935 18.2144ZM15.976 24.194C15.9946 24.1961 16.0134 24.1961 16.032 24.194L18.5581 24.8815V26.1766C17.7393 26.3817 16.8825 26.4884 16 26.4884C15.1175 26.4884 14.2607 26.3817 13.4419 26.1766V24.8815L15.976 24.194Z" fill="#304C50"/>
</svg>
