<svg width="32" height="32" viewBox="0 0 32 32" fill="none" xmlns="http://www.w3.org/2000/svg">
<circle cx="16" cy="16" r="15.5" fill="white" stroke="#304C50"/>
<path d="M26.9688 15.1688C26.9688 15.1685 26.9688 15.1685 26.9688 15.1688C26.6292 10.6411 23.4052 6.67463 19.0368 5.42372C16.6378 4.73671 14.0298 4.88891 11.7276 5.85274C9.77378 6.67072 8.07635 8.06161 6.88371 9.81092C4.25421 13.668 4.39135 18.9249 7.20906 22.6464C9.94538 26.2603 14.7507 27.8408 19.1025 26.5606C23.4221 25.2899 26.5977 21.3791 26.9639 16.8961C27.0106 16.3215 27.0118 15.7434 26.9688 15.1688ZM25.6835 13.3865C25.0056 12.709 24.1386 12.0701 23.1552 11.9822C22.1534 11.8925 21.2228 12.4124 20.4101 12.9357C19.8962 12.2648 19.3472 11.6203 18.7799 10.9942C20.117 10.1283 21.5829 9.11218 23.2422 9.10363C24.4048 10.3145 25.2405 11.7894 25.6835 13.3865C25.2405 11.7894 25.6705 13.3736 25.6835 13.3865ZM18.4824 6.86764C18.5149 6.71567 18.5149 6.53439 18.4824 6.3211C19.887 6.67976 21.1881 7.33526 22.3148 8.25047C21.753 8.34844 21.1793 8.5202 20.677 8.79554C19.7975 9.23507 18.9539 9.75986 18.1321 10.2976C17.619 9.7645 17.0785 9.25388 16.5092 8.78113C17.8705 7.95656 18.3198 7.63064 18.4824 6.86764ZM17.4745 6.11783C17.5452 6.35799 17.6207 6.61379 17.509 6.85273C17.4423 6.99542 17.3244 7.10414 17.2047 7.20235C16.7502 7.57518 16.2176 7.86005 15.7177 8.1652C14.7793 7.48405 13.7529 6.91821 12.6433 6.57177C14.1804 6.03525 15.8627 5.87791 17.4745 6.11783C15.8627 5.87791 17.4765 6.12467 17.4745 6.11783ZM11.1358 7.24242C11.7418 7.25097 13.1339 7.52729 14.8595 8.70637C14.2699 9.09043 13.6935 9.45495 13.0339 9.70978C12.4644 9.92991 11.8714 10.0838 11.2771 10.2211C10.4849 10.4039 9.67429 10.5241 8.89329 10.7518C8.15213 10.968 7.46206 11.3184 6.85364 11.794C7.75442 9.87958 9.24822 8.27686 11.1358 7.24242C11.1358 7.24242 12.1415 7.13174 11.1358 7.24242ZM7.79549 20.5513C7.63586 20.8206 7.51364 21.1167 7.43126 21.4187C6.00982 19.1636 5.55784 16.3769 6.16186 13.783C7.06973 12.72 8.11546 11.8879 9.49193 11.558C10.8408 11.235 12.2241 11.0523 13.5172 10.5258C14.2926 10.2101 14.9626 9.74887 15.6647 9.30201C16.2205 9.74422 16.782 10.2556 17.3425 10.829C15.461 12.1297 13.7042 13.6086 12.0733 15.2108C10.906 16.3579 9.80629 17.5795 8.85638 18.9139C8.4792 19.4441 8.1272 19.9916 7.79549 20.5513C8.8048 18.8485 7.75344 20.6222 7.79549 20.5513ZM14.3236 26.0106C13.3962 26.0724 9.77989 24.382 8.22155 22.5071C8.23133 21.9654 8.35526 21.4463 8.63149 20.9784C8.78182 20.7238 8.93827 20.4727 9.09911 20.2244C9.47311 19.6469 9.87571 19.0881 10.3035 18.5492C11.5929 16.9237 13.0897 15.4637 14.6522 14.1028C15.7138 13.1781 16.8299 12.3159 17.991 11.5199C18.6178 12.2065 19.1609 12.8495 19.6376 13.4686C18.9341 13.989 18.2206 14.5766 17.7554 15.3286C17.3616 15.9653 17.1176 16.6909 16.9304 17.4116C16.6749 18.394 16.5637 19.3991 16.3875 20.3964C16.2227 21.3278 16.0105 22.2518 15.7209 23.1528C15.3933 24.1716 14.9919 25.164 14.3236 26.0106C14.6764 25.5586 14.275 26.0724 14.3236 26.0106ZM22.9171 21.8941C22.9056 22.4995 22.8122 23.113 22.5822 23.6759C20.6046 25.3949 18.0419 26.2818 15.3958 26.1289C16.3581 24.7035 16.8353 22.9298 17.1765 21.2638C17.5303 19.5355 17.5799 17.6555 18.4154 16.0627C18.816 15.299 19.5112 14.7283 20.1942 14.2235C20.9718 15.3337 21.6213 16.5211 22.0835 17.7969C22.5541 19.0957 22.9432 20.502 22.9171 21.8941ZM23.8298 22.3781C23.8298 22.3781 23.5935 19.3774 23.1315 17.9594C22.6333 16.43 21.8902 15.0073 20.9662 13.6921C21.4223 13.4019 21.909 13.107 22.4377 12.9709C22.9528 12.8383 23.4634 12.9401 23.9232 13.1969C24.8062 13.6899 25.5666 14.5072 26.0262 15.4028C26.189 17.9061 25.4011 20.4199 23.8298 22.3781C23.8298 22.3781 23.8971 21.5809 23.8298 22.3781Z" fill="#304C50"/>
</svg>
